<svg xmlns="http://www.w3.org/2000/svg" xmlns:xlink="http://www.w3.org/1999/xlink" xml:lang="en" height="334.8pt" width="400.7pt" viewBox="-15.400000000000002 -231.20000000000002 400.7 334.8"><circle cx="306.0" cy="36.0" r="18.0" style="stroke:black;fill:none;stroke-width:2.0;stroke-dasharray:-;" /><path d="M 36.0,-144.0 L 72.0,-144.0 L 108.0,-144.0" style="stroke:black;fill:none;stroke-width:2.0;stroke-dasharray:-;stroke-linecap:round;stroke-linejoin:round;" /><path d="M 108.0,-144.0 L 144.0,-144.0 L 144.04421936063176,-145.53009669853586 L 144.17878926453793,-147.10054576629966 L 144.40500751259427,-148.67517889887333 L 144.7220611939835,-150.21773143052863 L 145.12704540797787,-151.69267752939305 L 145.61503016539797,-153.06604837686623 L 146.17917392897095,-154.30621448816584 L 146.8108811776907,-155.3846141567309 L 147.50000036638673,-156.27641124600808 L 148.23505772138407,-156.96106717931497 L 149.00352148781158,-157.4228139545395 L 149.79209054279823,-157.6510172898872 L 150.58700072763716,-157.6404215372307 L 151.37434184391861,-157.3912707225723 L 152.14037801303834,-156.90930292599072 L 152.8718640210244,-156.2056181305063 L 153.5563503630885,-155.29642258337657 L 154.18246996255772,-154.20265555732232 L 154.74019996089208,-152.94950710757863 L 155.22109254962098,-151.56583793108985 L 155.61846952801102,-150.08351468881074 L 155.92757610569623,-148.5366760990055 L 156.1456904081112,-146.9609467038195 L 156.27218616275684,-145.39261641651092 L 156.30854712260023,-143.8678047448205 L 156.2583328944288,-142.42162893887354 L 156.12709695915134,-141.0873952216258 L 155.92225877208307,-139.89583172825903 L 155.65293288881554,-138.87438082035376 L 155.32971905199616,-138.0465670732329 L 154.96445807343437,-137.43145549207347 L 154.56995913370338,-137.04321243436846 L 154.15970477967778,-136.89077935093442 L 153.74754041407522,-136.97766685938907 L 153.34735542822872,-137.30187389269977 L 152.9727633217773,-137.85593378485618 L 152.63678817629366,-138.62708623228866 L 152.3515647035333,-139.59757117066655 L 152.12805877635967,-140.74503779893246 L 151.97581487866992,-142.04305933052413 L 151.90273629068992,-143.4617416167809 L 151.9149030720904,-144.9684116256031 L 152.01643203487424,-146.52836991932338 L 152.20938193093514,-148.10568980181083 L 152.49370603787108,-149.66404473001123 L 152.86725323502685,-151.16754493418208 L 153.325817544984,-152.58156397899768 L 153.86323499953056,-153.8735362293696 L 154.47152559923364,-155.0137068549055 L 155.14107709720844,-155.97581709999255 L 155.8608663744426,-156.7377090373586 L 156.61871330828006,-157.28183587730513 L 157.40156128733457,-157.59566607990945 L 158.19577791241937,-157.6719719632706 L 158.98746895818692,-157.50899616099272 L 159.76279836476812,-157.11049209529776 L 160.50830688982902,-156.485637533651 L 161.21122208231296,-155.6488232197362 L 161.85975243900174,-154.61932144672625 L 162.4433589693103,-153.42084220578832 L 162.9529979140269,-152.08098713196733 L 163.38132902805415,-150.6306138233736 L 163.72288463028434,-149.103125173754 L 163.97419552729795,-147.53370008550547 L 164.1338709107929,-145.95848328023564 L 164.20263038866383,-144.41375286597543 L 164.18328741203672,-142.93508483242968 L 164.08068447994498,-141.55653371639835 L 163.90158161391702,-140.30984830709326 L 163.65450067096873,-139.2237404540885 L 163.3495290805565,-138.3232238176578 L 162.9980875255375,-137.62903779044277 L 162.61266691757208,-137.1571698578515 L 162.20654072456912,-136.91848739749042 L 161.7934592754309,-136.91848739749042 L 161.38733308242792,-137.15716985785147 L 161.0019124744625,-137.62903779044274 L 160.6504709194435,-138.32322381765778 L 160.34549932903127,-139.22374045408847 L 160.09841838608298,-140.30984830709323 L 159.91931552005505,-141.5565337163983 L 159.81671258796325,-142.93508483242965 L 159.79736961133617,-144.4137528659754 L 159.86612908920705,-145.9584832802356 L 160.02580447270205,-147.53370008550542 L 160.27711536971563,-149.10312517375394 L 160.61867097194585,-150.63061382337358 L 161.0470020859731,-152.08098713196725 L 161.5566410306897,-153.4208422057883 L 162.1402475609982,-154.6193214467262 L 162.788777917687,-155.64882321973613 L 163.49169311017096,-156.485637533651 L 164.23720163523188,-157.11049209529773 L 165.01253104181305,-157.5089961609927 L 165.80422208758057,-157.6719719632706 L 166.5984387126654,-157.59566607990945 L 167.3812866917199,-157.28183587730513 L 168.13913362555738,-156.73770903735863 L 168.85892290279156,-155.97581709999255 L 169.52847440076636,-155.01370685490554 L 170.1367650004694,-153.87353622936962 L 170.67418245501597,-152.58156397899768 L 171.13274676497315,-151.1675449341821 L 171.5062939621289,-149.66404473001128 L 171.79061806906486,-148.10568980181085 L 171.98356796512576,-146.52836991932347 L 172.0850969279096,-144.96841162560312 L 172.09726370931008,-143.46174161678093 L 172.0241851213301,-142.04305933052422 L 171.87194122364033,-140.7450377989325 L 171.6484352964667,-139.5975711706666 L 171.36321182370634,-138.62708623228866 L 171.0272366782227,-137.85593378485623 L 170.6526445717713,-137.3018738926998 L 170.25245958592478,-136.97766685938907 L 169.84029522032225,-136.89077935093442 L 169.43004086629662,-137.04321243436846 L 169.03554192656563,-137.43145549207344 L 168.67028094800384,-138.04656707323286 L 168.34706711118446,-138.87438082035376 L 168.07774122791696,-139.895831728259 L 167.87290304084866,-141.08739522162574 L 167.7416671055712,-142.42162893887348 L 167.69145287739977,-143.86780474482043 L 167.72781383724316,-145.39261641651092 L 167.8543095918888,-146.96094670381947 L 168.0724238943037,-148.53667609900543 L 168.38153047198898,-150.0835146888107 L 168.77890745037902,-151.56583793108982 L 169.25980003910792,-152.94950710757863 L 169.81753003744225,-154.20265555732232 L 170.44364963691146,-155.29642258337654 L 171.1281359789756,-156.2056181305063 L 171.85962198696166,-156.90930292599072 L 172.62565815608136,-157.39127072257227 L 173.41299927236284,-157.6404215372307 L 174.20790945720174,-157.6510172898872 L 174.99647851218842,-157.4228139545395 L 175.7649422786159,-156.96106717931502 L 176.49999963361324,-156.27641124600814 L 177.1891188223093,-155.38461415673092 L 177.82082607102905,-154.30621448816586 L 178.384969834602,-153.06604837686632 L 178.87295459202213,-151.69267752939308 L 179.27793880601646,-150.2177314305287 L 179.59499248740573,-148.67517889887333 L 179.82121073546207,-147.10054576629972 L 179.95578063936824,-145.53009669853594 L 180.0,-144.00000000000003 L 216.0,-144.00000000000003" style="stroke:black;fill:none;stroke-width:2.0;stroke-dasharray:-;stroke-linecap:round;stroke-linejoin:round;" /><path d="M 180.0,-144.0 L 198.0,-144.0 L 216.0,-144.0" style="stroke:black;fill:none;stroke-width:2.0;stroke-dasharray:-;stroke-linecap:round;stroke-linejoin:round;" /><path d="M 216.0,-144.0 L 216.0,-108.0 L 216.0,-72.0" style="stroke:black;fill:none;stroke-width:2.0;stroke-dasharray:-;stroke-linecap:round;stroke-linejoin:round;" /><path d="M 216.0,-72.0 L 216.0,-57.6 L 207.0,-57.6 L 225.0,-57.6 M 209.70000000000002,-53.28 L 222.29999999999998,-53.28 M 214.20000000000002,-48.959999999999994 L 217.79999999999998,-48.959999999999994" style="stroke:black;fill:none;stroke-width:2.0;stroke-dasharray:-;stroke-linecap:round;stroke-linejoin:round;" /><path d="M 36.0,-180.0 L 90.0,-180.0 L 144.0,-180.0" style="stroke:red;fill:none;stroke-width:2.0;stroke-dasharray:-;stroke-linecap:round;stroke-linejoin:round;" /><path d="M 144.0,-180.0 L 144.0,-162.0 L 144.0,-144.0" style="stroke:red;fill:none;stroke-width:2.0;stroke-dasharray:-;stroke-linecap:round;stroke-linejoin:round;" /><path d="M 36.0,36.0 L 72.0,36.0 L 108.0,36.0" style="stroke:black;fill:none;stroke-width:2.0;stroke-dasharray:-;stroke-linecap:round;stroke-linejoin:round;" /><path d="M 108.0,36.0 L 144.0,36.0 M 152.64000000000001,32.4 L 172.79999999999998,19.8 M 180.0,36.0 L 216.0,36.0" style="stroke:black;fill:none;stroke-width:2.0;stroke-dasharray:-;stroke-linecap:round;stroke-linejoin:round;" /><path d="M 180.0,36.0 L 216.0,36.0 L 252.0,36.0" style="stroke:black;fill:none;stroke-width:2.0;stroke-dasharray:-;stroke-linecap:round;stroke-linejoin:round;" /><path d="M 252.0,36.0 L 280.08,36.0 L 280.08,36.0 M 331.91999999999996,36.0 L 331.91999999999996,36.0 L 360.0,36.0" style="stroke:black;fill:none;stroke-width:2.0;stroke-dasharray:-;stroke-linecap:round;stroke-linejoin:round;" /><path d="M 288.0,43.92 L 280.08,43.92 L 280.08,28.080000000000002 L 288.0,28.080000000000002" style="stroke:black;fill:none;stroke-width:2.0;stroke-dasharray:-;stroke-linecap:round;stroke-linejoin:round;" /><path d="M 324.0,43.92 L 331.91999999999996,43.92 L 331.91999999999996,28.080000000000002 L 324.0,28.080000000000002" style="stroke:black;fill:none;stroke-width:2.0;stroke-dasharray:-;stroke-linecap:round;stroke-linejoin:round;" /><path d="M 36.0,90.0 L 171.0,90.0 L 306.0,90.0" style="stroke:black;fill:none;stroke-width:2.0;stroke-dasharray:-;stroke-linecap:round;stroke-linejoin:round;" /><path d="M 306.0,90.0 L 306.0,72.0 L 306.0,54.0" style="stroke:black;fill:none;stroke-width:2.0;stroke-dasharray:-;stroke-linecap:round;stroke-linejoin:round;" /><text x="3.6" y="-233.6" dominant-baseline="central" fill="black" font-size="14" font-family="sans" text-anchor="start"><tspan x="3.6" dy="14">Relay Wiring - GPIO4 to 110V Fan</tspan></text><text x="162.0" y="-143.29077935093443" dominant-baseline="hanging" fill="black" font-size="10" font-family="sans" text-anchor="middle"><tspan x="162.0" dy="10">Relay</tspan><tspan x="162.0" dy="10">Coil</tspan></text><text x="3.5999999999999996" y="-8.399999999999999" dominant-baseline="central" fill="black" font-size="12" font-family="sans" text-anchor="start"><tspan x="3.5999999999999996" dy="12">110V AC Side</tspan></text><circle cx="148.32" cy="36.0" r="4.32" style="stroke:black;fill:white;stroke-width:2.0;stroke-dasharray:-;" /><circle cx="175.68" cy="36.0" r="4.32" style="stroke:black;fill:white;stroke-width:2.0;stroke-dasharray:-;" /><text x="162.0" y="7.199999999999999" dominant-baseline="ideographic" fill="black" font-size="9" font-family="sans" text-anchor="middle"><tspan x="162.0" dy="9">NO</tspan></text><text x="363.59999999999997" y="26.0" dominant-baseline="central" fill="black" font-size="10" font-family="sans" text-anchor="start"><tspan x="363.59999999999997" dy="10">Fan</tspan></text><circle cx="36.0" cy="-144.0" r="2.6999999999999997" style="stroke:black;fill:black;stroke-width:2.0;stroke-dasharray:-;" /><text x="29.7" y="-154.0" dominant-baseline="central" fill="black" font-size="10" font-family="sans" text-anchor="end"><tspan x="29.7" dy="10">GPIO4</tspan></text><circle cx="36.0" cy="-180.0" r="2.6999999999999997" style="stroke:black;fill:black;stroke-width:2.0;stroke-dasharray:-;" /><text x="29.7" y="-190.0" dominant-baseline="central" fill="red" font-size="10" font-family="sans" text-anchor="end"><tspan x="29.7" dy="10">3.3V</tspan></text><circle cx="36.0" cy="36.0" r="2.6999999999999997" style="stroke:black;fill:black;stroke-width:2.0;stroke-dasharray:-;" /><text x="29.7" y="22.5" dominant-baseline="central" fill="black" font-size="9" font-family="sans" text-anchor="end"><tspan x="29.7" dy="9">HOT</tspan><tspan x="29.7" dy="9">(Black)</tspan></text><circle cx="36.0" cy="90.0" r="2.6999999999999997" style="stroke:black;fill:black;stroke-width:2.0;stroke-dasharray:-;" /><text x="29.7" y="76.5" dominant-baseline="central" fill="black" font-size="9" font-family="sans" text-anchor="end"><tspan x="29.7" dy="9">NEUTRAL</tspan><tspan x="29.7" dy="9">(White)</tspan></text></svg>