<svg xmlns="http://www.w3.org/2000/svg" xmlns:xlink="http://www.w3.org/1999/xlink" xml:lang="en" height="272.7pt" width="594.62pt" viewBox="-40.600000000000016 -303.2 594.62 272.7"><circle cx="477.0" cy="-198.0" r="18.0" style="stroke:black;fill:none;stroke-width:2.0;stroke-dasharray:-;" /><path d="M 0.0,-180.0 L 36.0,-180.0 L 72.0,-180.0" style="stroke:black;fill:none;stroke-width:2.0;stroke-dasharray:-;stroke-linecap:round;stroke-linejoin:round;" /><path d="M 72.0,-126.0 L 144.0,-126.0 L 216.0,-126.0" style="stroke:black;fill:none;stroke-width:2.0;stroke-dasharray:-;stroke-linecap:round;stroke-linejoin:round;" /><path d="M 216.0,-126.0 L 216.0,-180.0 L 216.0,-234.0" style="stroke:black;fill:none;stroke-width:2.0;stroke-dasharray:-;stroke-linecap:round;stroke-linejoin:round;" /><path d="M 216.0,-234.0 L 144.0,-234.0 L 72.0,-234.00000000000003" style="stroke:black;fill:none;stroke-width:2.0;stroke-dasharray:-;stroke-linecap:round;stroke-linejoin:round;" /><path d="M 72.0,-234.0 L 71.99999999999999,-180.0 L 71.99999999999999,-126.0" style="stroke:black;fill:none;stroke-width:2.0;stroke-dasharray:-;stroke-linecap:round;stroke-linejoin:round;" /><path d="M 72.0,-162.0 L 54.0,-162.0 L 36.0,-162.0" style="stroke:blue;fill:none;stroke-width:2.0;stroke-dasharray:-;stroke-linecap:round;stroke-linejoin:round;" /><path d="M -36.0,-126.0 L 0.0,-126.0 L 36.0,-126.0" style="stroke:black;fill:none;stroke-width:2.0;stroke-dasharray:-;stroke-linecap:round;stroke-linejoin:round;" /><path d="M 36.0,-126.0 L 36.0,-162.0 L 36.00000000000001,-198.0" style="stroke:black;fill:none;stroke-width:2.0;stroke-dasharray:-;stroke-linecap:round;stroke-linejoin:round;" /><path d="M 36.0,-198.0 L 0.0,-198.0 L -36.0,-198.0" style="stroke:black;fill:none;stroke-width:2.0;stroke-dasharray:-;stroke-linecap:round;stroke-linejoin:round;" /><path d="M -36.0,-198.0 L -36.00000000000001,-162.0 L -36.000000000000014,-126.0" style="stroke:black;fill:none;stroke-width:2.0;stroke-dasharray:-;stroke-linecap:round;stroke-linejoin:round;" /><path d="M 216.0,-198.0 L 252.0,-198.0 L 288.0,-198.0" style="stroke:black;fill:none;stroke-width:2.0;stroke-dasharray:-;stroke-linecap:round;stroke-linejoin:round;" /><path d="M 288.0,-171.0 L 324.0,-171.0 L 360.0,-171.0" style="stroke:black;fill:none;stroke-width:2.0;stroke-dasharray:-;stroke-linecap:round;stroke-linejoin:round;" /><path d="M 360.0,-171.0 L 360.0,-198.0 L 360.0,-225.0" style="stroke:black;fill:none;stroke-width:2.0;stroke-dasharray:-;stroke-linecap:round;stroke-linejoin:round;" /><path d="M 360.0,-225.0 L 324.0,-225.0 L 288.0,-225.0" style="stroke:black;fill:none;stroke-width:2.0;stroke-dasharray:-;stroke-linecap:round;stroke-linejoin:round;" /><path d="M 288.0,-225.0 L 288.0,-198.0 L 288.0,-171.0" style="stroke:black;fill:none;stroke-width:2.0;stroke-dasharray:-;stroke-linecap:round;stroke-linejoin:round;" /><path d="M 360.0,-198.0 L 387.0,-198.0 L 414.0,-198.0" style="stroke:orange;fill:none;stroke-width:2.0;stroke-dasharray:-;stroke-linecap:round;stroke-linejoin:round;" /><path d="M 432.0,-198.0 L 451.08,-198.0 L 451.08,-198.0 M 502.92,-198.0 L 502.92,-198.0 L 522.0,-198.0" style="stroke:black;fill:none;stroke-width:2.0;stroke-dasharray:-;stroke-linecap:round;stroke-linejoin:round;" /><path d="M 459.0,-190.08 L 451.08,-190.08 L 451.08,-205.92 L 459.0,-205.92" style="stroke:black;fill:none;stroke-width:2.0;stroke-dasharray:-;stroke-linecap:round;stroke-linejoin:round;" /><path d="M 495.0,-190.08 L 502.92,-190.08 L 502.92,-205.92 L 495.0,-205.92" style="stroke:black;fill:none;stroke-width:2.0;stroke-dasharray:-;stroke-linecap:round;stroke-linejoin:round;" /><path d="M 0.0,-36.0 L 18.0,-36.0 L 36.0,-36.0" style="stroke:blue;fill:none;stroke-width:2.0;stroke-dasharray:-;stroke-linecap:round;stroke-linejoin:round;" /><path d="M 144.0,-36.0 L 162.0,-36.0 L 180.0,-36.0" style="stroke:orange;fill:none;stroke-width:2.0;stroke-dasharray:-;stroke-linecap:round;stroke-linejoin:round;" /><text x="3.6" y="-305.59999999999997" dominant-baseline="central" fill="black" font-size="14" font-family="sans" text-anchor="start"><tspan x="3.6" dy="14">CO2 Fan Controller - System Diagram</tspan></text><text x="147.6" y="-205.4" dominant-baseline="central" fill="black" font-size="11" font-family="sans" text-anchor="middle"><tspan x="147.6" dy="11">ESP32-POE-ISO</tspan></text><text x="147.6" y="-170.4" dominant-baseline="central" fill="black" font-size="8" font-family="sans" text-anchor="middle"><tspan x="147.6" dy="8">GPIO13: SDA</tspan><tspan x="147.6" dy="8">GPIO16: SCL</tspan></text><text x="147.6" y="-220.4" dominant-baseline="central" fill="black" font-size="8" font-family="sans" text-anchor="middle"><tspan x="147.6" dy="8">GPIO4: Relay</tspan></text><text x="14.399999999999999" y="-167.4" dominant-baseline="central" fill="blue" font-size="9" font-family="sans" text-anchor="middle"><tspan x="14.399999999999999" dy="9">I2C</tspan></text><text x="3.5999999999999996" y="-179.20000000000002" dominant-baseline="central" fill="black" font-size="10" font-family="sans" text-anchor="middle"><tspan x="3.5999999999999996" dy="10">SCD-40</tspan></text><text x="3.5999999999999996" y="-155.60000000000002" dominant-baseline="central" fill="black" font-size="8" font-family="sans" text-anchor="middle"><tspan x="3.5999999999999996" dy="8">CO2 Sensor</tspan></text><text x="327.59999999999997" y="-209.4" dominant-baseline="central" fill="black" font-size="10" font-family="sans" text-anchor="middle"><tspan x="327.59999999999997" dy="10">Relay</tspan><tspan x="327.59999999999997" dy="10">10A</tspan></text><text x="525.6" y="-213.0" dominant-baseline="central" fill="black" font-size="10" font-family="sans" text-anchor="start"><tspan x="525.6" dy="10">110V</tspan><tspan x="525.6" dy="10">Fan</tspan></text><text x="3.6" y="-67.6" dominant-baseline="central" fill="black" font-size="10" font-family="sans" text-anchor="start"><tspan x="3.6" dy="10">Legend:</tspan></text><text x="46.800000000000004" y="-48.6" dominant-baseline="central" fill="blue" font-size="9" font-family="sans" text-anchor="start"><tspan x="46.800000000000004" dy="9">I2C Bus</tspan></text><text x="190.79999999999998" y="-48.6" dominant-baseline="central" fill="orange" font-size="9" font-family="sans" text-anchor="start"><tspan x="190.79999999999998" dy="9">110V AC</tspan></text><circle cx="0.0" cy="-180.0" r="2.6999999999999997" style="stroke:black;fill:black;stroke-width:2.0;stroke-dasharray:-;" /><text x="-6.3" y="-195.0" dominant-baseline="central" fill="black" font-size="10" font-family="sans" text-anchor="end"><tspan x="-6.3" dy="10">PoE</tspan><tspan x="-6.3" dy="10">(Cat6)</tspan></text></svg>